<?xml version="1.0" encoding="UTF-8" standalone="no"?>
<svg width="17px" height="17px" viewBox="0 0 17 17" version="1.1" xmlns="http://www.w3.org/2000/svg" xmlns:xlink="http://www.w3.org/1999/xlink">
    <!-- Generator: sketchtool 41.2 (35397) - http://www.bohemiancoding.com/sketch -->
    <title>62767B24-A728-4177-8040-6782756EB8E9</title>
    <desc>Created with sketchtool.</desc>
    <defs></defs>
    <g id="Symbols" stroke="none" stroke-width="1" fill="none" fill-rule="evenodd" opacity="0.99000001">
        <g id="User-&amp;-Signout" transform="translate(1.000000, -2.000000)" fill="#FFFFFF">
            <g id="Group-2" transform="translate(-1.000000, 0.000000)">
                <g id="Group" transform="translate(0.000000, 1.000000)">
                    <g id="Group-3" transform="translate(0.000000, 1.000000)">
                        <g id="user" transform="translate(1.000000, 1.000000)">
                            <g id="Layer_1">
                                <path d="M7.4998,0 C3.35785,0 5.00000001e-05,3.3579 5.00000001e-05,7.49985 C5.00000001e-05,11.6417 3.35785,14.99985 7.4998,14.99985 C11.64175,14.99985 14.9998,11.6417 14.9998,7.49985 C14.9998,3.3578 11.64175,0 7.4998,0 Z M7.52265,11.03815 L7.52265,11.03805 L7.47685,11.03805 L4.27325,11.03805 C4.27325,8.69525 6.33085,8.6958 6.78745,8.0832 L6.8397,7.80385 C6.1982,7.47875 5.74535,6.69495 5.74535,5.77825 C5.74535,4.57055 6.53095,3.59135 7.4998,3.59135 C8.46865,3.59135 9.25425,4.57055 9.25425,5.77825 C9.25425,6.68715 8.80945,7.46605 8.1765,7.7963 L8.236,8.11375 C8.73695,8.69665 10.7261,8.73465 10.7261,11.03815 L7.52265,11.03815 L7.52265,11.03815 Z" id="Shape"></path>
                            </g>
                        </g>
                    </g>
                </g>
            </g>
        </g>
    </g>
</svg>